<?xml version="1.0" standalone="no"?><!DOCTYPE svg PUBLIC "-//W3C//DTD SVG 1.1//EN" "http://www.w3.org/Graphics/SVG/1.1/DTD/svg11.dtd"><svg t="1681181123548" class="icon" viewBox="0 0 1024 1024" version="1.1" xmlns="http://www.w3.org/2000/svg" p-id="4569" xmlns:xlink="http://www.w3.org/1999/xlink" width="200" height="200"><path d="M508.586667 512.64m-500.48 0a500.48 500.48 0 1 0 1000.96 0 500.48 500.48 0 1 0-1000.96 0Z" fill="#2D8CF0" p-id="4570"></path><path d="M229.333333 430.08l-27.946666-38.186667a519.893333 519.893333 0 0 0 135.893333-192l46.72 11.093334c-6.826667 18.346667-14.933333 36.266667-23.253333 53.333333h147.626666a541.226667 541.226667 0 0 0-30.08-58.88l50.56-8.106667c9.386667 19.84 18.346667 42.666667 27.306667 66.986667h219.306667v40.96H558.506667v46.293333h192v38.186667h-192v45.226667h192v38.186666h-192v48.426667H789.333333v41.6H286.72v-192a742.186667 742.186667 0 0 1-57.386667 58.88zM219.946667 661.333333v-44.16H490.666667v-35.626666h49.066666v35.626666h268.586667V661.333333h-206.933333c46.506667 43.733333 118.186667 78.506667 214.4 104.32l-21.333334 43.733334C681.386667 771.413333 601.386667 722.346667 554.666667 661.333333h-13.013334v166.613334H490.666667V661.333333h-13.013334c-42.666667 58.026667-122.88 108.586667-239.573333 150.826667L213.333333 770.133333q157.866667-48.213333 217.173334-108.586666zM509.866667 305.28h-174.08l-3.413334 5.333333v40.96h177.493334z m0 85.333333h-177.493334v45.226667h177.493334z m0 83.413334h-177.493334v48.426666h177.493334z" fill="#FFFFFF" p-id="4571"></path></svg>