<?xml version="1.0" standalone="no"?><!DOCTYPE svg PUBLIC "-//W3C//DTD SVG 1.1//EN" "http://www.w3.org/Graphics/SVG/1.1/DTD/svg11.dtd"><svg t="1681181129477" class="icon" viewBox="0 0 1024 1024" version="1.1" xmlns="http://www.w3.org/2000/svg" p-id="4705" xmlns:xlink="http://www.w3.org/1999/xlink" width="200" height="200"><path d="M510.293333 513.92m-500.48 0a500.48 500.48 0 1 0 1000.96 0 500.48 500.48 0 1 0-1000.96 0Z" fill="#C2C5CA" p-id="4706"></path><path d="M343.04 822.826667H296.533333V482.773333a816.426667 816.426667 0 0 1-80.426666 175.573334l-21.333334-53.333334a640 640 0 0 0 101.76-222.506666v-4.053334h-79.146666v-44.373333h79.146666V201.6h46.506667v132.48h71.68v44.373333h-71.68v45.013334c29.44 35.413333 59.306667 76.373333 90.88 122.24l-26.026667 38.826666c-25.173333-45.013333-47.146667-81.28-64-109.226666z m228.693333-92.16c-31.36 39.466667-85.333333 70.186667-164.48 92.8l-17.706666-40.96c68.266667-18.346667 116.693333-45.013333 146.773333-79.786667a231.893333 231.893333 0 0 0 18.346667-27.306667h-158.293334v-45.226666H576a384 384 0 0 0 13.013333-51.84h-143.573333v-206.72h327.04v206.72h-139.946667a467.626667 467.626667 0 0 1-10.88 51.84h196.48v45.226666h-172.586666a414.933333 414.933333 0 0 0 180.053333 112.64l-32.64 38.826667c-88.746667-38.186667-152.32-85.333333-192-142.72a253.866667 253.866667 0 0 1-29.226667 46.506667zM509.013333 256V200.96H554.666667V256h109.866666V200.96h46.506667V256h106.666667v42.666667h-106.666667v51.2h-46.506667V298.666667H554.666667v51.2h-45.653334V298.666667h-99.84v-42.666667z m219.093334 201.386667v-46.293334H490.666667v45.866667z m0 36.906666H490.666667v46.293334h237.44z" fill="#FFFFFF" p-id="4707"></path></svg>