<?xml version="1.0" standalone="no"?><!DOCTYPE svg PUBLIC "-//W3C//DTD SVG 1.1//EN" "http://www.w3.org/Graphics/SVG/1.1/DTD/svg11.dtd"><svg t="1681181010719" class="icon" viewBox="0 0 1024 1024" version="1.1" xmlns="http://www.w3.org/2000/svg" p-id="4161" xmlns:xlink="http://www.w3.org/1999/xlink" width="200" height="200"><path d="M511.36 513.28m-500.48 0a500.48 500.48 0 1 0 1000.96 0 500.48 500.48 0 1 0-1000.96 0Z" fill="#C2C5CA" p-id="4162"></path><path d="M462.08 218.026667v542.72h97.066667V218.026667h49.706666v542.72h204.8v47.786666H208.853333v-47.786666h203.52V218.026667zM362.666667 658.346667l-45.013334 11.733333a2547.626667 2547.626667 0 0 0-92.16-315.52l42.026667-13.226667A2401.706667 2401.706667 0 0 1 362.666667 658.346667z m432.64-303.786667a1583.573333 1583.573333 0 0 1-103.04 312.106667l-44.373334-15.786667a1477.546667 1477.546667 0 0 0 103.68-308.48z" fill="#FFFFFF" p-id="4163"></path></svg>