<?xml version="1.0" standalone="no"?><!DOCTYPE svg PUBLIC "-//W3C//DTD SVG 1.1//EN" "http://www.w3.org/Graphics/SVG/1.1/DTD/svg11.dtd"><svg t="1681181138884" class="icon" viewBox="0 0 1024 1024" version="1.1" xmlns="http://www.w3.org/2000/svg" p-id="4841" xmlns:xlink="http://www.w3.org/1999/xlink" width="200" height="200"><path d="M512.853333 513.493333m-500.48 0a500.48 500.48 0 1 0 1000.96 0 500.48 500.48 0 1 0-1000.96 0Z" fill="#C2C5CA" p-id="4842"></path><path d="M291.413333 432.426667v-147.413334h-85.333333v-47.786666H426.666667v47.786666h-87.466667v147.413334h77.653333v47.146666H339.2v161.92c31.36-9.6 61.44-21.333333 91.306667-32.213333v47.146667a1545.173333 1545.173333 0 0 1-221.866667 66.133333l-12.16-46.933333c32-5.546667 64-12.373333 94.933333-21.333334v-174.72H215.466667v-47.146666zM800.64 217.6v47.786667h-122.88a849.493333 849.493333 0 0 1-30.72 85.333333v458.666667h-47.786667V445.44a763.733333 763.733333 0 0 1-147.413333 178.133333l-30.08-38.826666a702.72 702.72 0 0 0 208.213333-320h-176.213333V217.6z m28.586667 369.92L789.333333 616.106667A1403.52 1403.52 0 0 0 655.786667 426.666667l37.546666-23.466667a1494.613333 1494.613333 0 0 1 135.893334 184.32z" fill="#FFFFFF" p-id="4843"></path></svg>