<?xml version="1.0" standalone="no"?><!DOCTYPE svg PUBLIC "-//W3C//DTD SVG 1.1//EN" "http://www.w3.org/Graphics/SVG/1.1/DTD/svg11.dtd"><svg t="1681182445847" class="icon" viewBox="0 0 1024 1024" version="1.1" xmlns="http://www.w3.org/2000/svg" p-id="5938" xmlns:xlink="http://www.w3.org/1999/xlink" width="200" height="200"><path d="M508.3136 515.6864m-491.52 0a491.52 491.52 0 1 0 983.04 0 491.52 491.52 0 1 0-983.04 0Z" fill="#E9F6FF" p-id="5939"></path><path d="M215.04 689.7664c104.448-18.8416 198.2464-38.5024 284.2624-58.5728v51.6096c-67.1744 20.48-282.2144 58.5728-282.2144 58.1632-2.048-29.4912-3.2768-41.7792-2.048-51.2zM753.2544 342.016V401.408H222.0032V342.016H753.2544zM253.1328 446.464v160.9728h230.1952V446.464z m177.7664 111.0016h-122.88v-61.0304h124.928z" fill="#25AFFF" p-id="5940"></path><path d="M667.2384 292.0448m-32.768 0a32.768 32.768 0 1 0 65.536 0 32.768 32.768 0 1 0-65.536 0Z" fill="#25AFFF" p-id="5941"></path><path d="M476.3648 737.0752l287.66208-268.6976 37.76512 40.42752-287.66208 268.6976z" fill="#25AFFF" p-id="5942"></path><path d="M555.4176 250.6752l210.5344 530.0224h-60.6208L503.808 270.7456l51.6096-20.0704z" fill="#25AFFF" p-id="5943"></path></svg>