<?xml version="1.0" standalone="no"?><!DOCTYPE svg PUBLIC "-//W3C//DTD SVG 1.1//EN" "http://www.w3.org/Graphics/SVG/1.1/DTD/svg11.dtd"><svg t="1681182430403" class="icon" viewBox="0 0 1024 1024" version="1.1" xmlns="http://www.w3.org/2000/svg" p-id="5663" xmlns:xlink="http://www.w3.org/1999/xlink" width="200" height="200"><path d="M515.6864 508.3136m-491.52 0a491.52 491.52 0 1 0 983.04 0 491.52 491.52 0 1 0-983.04 0Z" fill="#E9F6FF" p-id="5664"></path><path d="M737.28 555.8272l40.96 40.96c-28.2624 25.3952-51.2 44.6464-68.8128 58.1632 31.5392 31.5392 68.4032 69.632 110.1824 115.0976H737.28l-74.5472-77.824a573.44 573.44 0 0 1-118.3744 73.728 252.3136 252.3136 0 0 1-98.7136 18.8416 150.7328 150.7328 0 0 1-107.3152-38.5024 122.88 122.88 0 0 1-40.96-94.6176 160.1536 160.1536 0 0 1 37.2736-102.4 597.1968 597.1968 0 0 1 102.8096-97.4848 507.0848 507.0848 0 0 1-60.6208-81.92 122.88 122.88 0 0 1-14.7456-55.296 92.16 92.16 0 0 1 37.2736-75.776A146.2272 146.2272 0 0 1 491.52 210.944a132.7104 132.7104 0 0 1 92.16 31.5392 95.4368 95.4368 0 0 1 35.6352 73.728 120.0128 120.0128 0 0 1-20.8896 63.0784 395.264 395.264 0 0 1-81.92 84.3776l149.0944 152.7808c23.7568-19.6608 47.104-40.96 70.4512-60.6208z m-255.1808-135.9872c52.0192-40.96 78.2336-76.1856 78.2336-103.6288a43.4176 43.4176 0 0 0-19.6608-35.2256 79.4624 79.4624 0 0 0-49.152-15.1552 81.92 81.92 0 0 0-50.3808 14.7456 44.2368 44.2368 0 0 0-20.48 38.0928c0 21.2992 20.8896 55.296 62.6688 101.1712z m-7.3728 77.824a471.4496 471.4496 0 0 0-97.8944 89.2928 114.688 114.688 0 0 0-22.1184 63.488 74.9568 74.9568 0 0 0 28.2624 55.7056 94.208 94.208 0 0 0 65.536 25.3952 181.4528 181.4528 0 0 0 75.3664-17.2032 636.928 636.928 0 0 0 99.1232-61.44z m0 0" fill="#25AFFF" p-id="5665"></path></svg>